
<svg width="15" height="17" viewBox="0 0 15 17" fill="none" xmlns="http://www.w3.org/2000/svg">
<path fill-rule="evenodd" clip-rule="evenodd" d="M5.125 2.95834V2.56251C5.125 2.03764 5.334 1.53414 5.70529 1.16284C6.07579 0.791552 6.57929 0.583344 7.10417 0.583344H7.89583C8.42071 0.583344 8.92421 0.791552 9.2955 1.16284C9.6668 1.53414 9.875 2.03764 9.875 2.56251V2.95834H13.8333C14.2703 2.95834 14.625 3.31301 14.625 3.75001C14.625 4.18701 14.2703 4.54168 13.8333 4.54168H13.0417V13.25C13.0417 14.9988 11.6246 16.4167 9.875 16.4167C8.42467 16.4167 6.57613 16.4167 5.125 16.4167C3.37621 16.4167 1.95833 14.9988 1.95833 13.25V4.54168H1.16667C0.729667 4.54168 0.375 4.18701 0.375 3.75001C0.375 3.31301 0.729667 2.95834 1.16667 2.95834H5.125ZM11.4583 4.54168H3.54167V13.25C3.54167 14.1248 4.251 14.8333 5.125 14.8333H9.875C10.7498 14.8333 11.4583 14.1248 11.4583 13.25V4.54168ZM8.29167 6.91668V12.4583C8.29167 12.8953 8.64633 13.25 9.08333 13.25C9.52033 13.25 9.875 12.8953 9.875 12.4583V6.91668C9.875 6.47968 9.52033 6.12501 9.08333 6.12501C8.64633 6.12501 8.29167 6.47968 8.29167 6.91668ZM5.125 6.91668V12.4583C5.125 12.8953 5.47967 13.25 5.91667 13.25C6.35367 13.25 6.70833 12.8953 6.70833 12.4583V6.91668C6.70833 6.47968 6.35367 6.12501 5.91667 6.12501C5.47967 6.12501 5.125 6.47968 5.125 6.91668ZM8.29167 2.95834V2.56251C8.29167 2.45722 8.2505 2.35668 8.17609 2.28226C8.10167 2.20864 8.00113 2.16668 7.89583 2.16668C7.63696 2.16668 7.36304 2.16668 7.10417 2.16668C6.99967 2.16668 6.89913 2.20864 6.82471 2.28226C6.75029 2.35668 6.70833 2.45722 6.70833 2.56251V2.95834H8.29167Z" fill="currentColor"/>
</svg>
