
<svg width="15" height="15" viewBox="0 0 15 15" fill="none" xmlns="http://www.w3.org/2000/svg">
<g clip-path="url(#clip0_1563_302)">
<path d="M14.411 4.92188C14.7889 4.54395 14.9999 4.04004 14.9999 3.50391C14.9999 2.96777 14.7918 2.46387 14.411 2.08594L12.9168 0.591797C12.536 0.208008 12.0321 0 11.496 0C10.9598 0 10.4559 0.208008 10.078 0.588867L0.758646 9.9082C0.237161 10.4297 -0.0382293 11.1475 0.00278628 11.8828L-0.000143406 14.2676C-0.000143406 14.4609 0.0760285 14.6484 0.213724 14.7861C0.351419 14.9238 0.535989 15 0.732278 15L3.11704 14.9971C3.8524 15.0381 4.57017 14.7627 5.09165 14.2412C5.37876 13.9541 5.37876 13.4912 5.09165 13.2041C4.80454 12.917 4.34165 12.917 4.05454 13.2041C3.82603 13.4326 3.50669 13.5527 3.18443 13.5322C3.16978 13.5322 3.1522 13.5293 3.13755 13.5293L1.4647 13.5352L1.46763 11.8623C1.46763 11.8477 1.46763 11.8301 1.4647 11.8154C1.44419 11.4932 1.56431 11.1738 1.79283 10.9453L9.55943 3.17871L11.8211 5.44043L5.98521 11.2764C5.6981 11.5635 5.6981 12.0264 5.98521 12.3135C6.27232 12.6006 6.73521 12.6006 7.02232 12.3135L14.411 4.92188ZM10.5965 2.1416L11.1151 1.62305C11.2176 1.52051 11.3524 1.46484 11.4989 1.46484C11.6424 1.46484 11.7801 1.52051 11.8827 1.62305L13.3768 3.11719C13.5877 3.32812 13.5877 3.67383 13.3768 3.88477L12.8583 4.40332L10.5965 2.1416Z" fill="currentColor"/>
<path d="M14.2676 13.5352H7.66113C7.25684 13.5352 6.92871 13.8633 6.92871 14.2676C6.92871 14.6719 7.25684 15 7.66113 15H14.2676C14.6719 15 15 14.6719 15 14.2676C15 13.8633 14.6719 13.5352 14.2676 13.5352Z" fill="currentColor"/>
</g>
<defs>
<clipPath id="clip0_1563_302">
<rect width="15" height="15" fill="white"/>
</clipPath>
</defs>
</svg>
