<svg width="22" height="21" viewBox="0 0 22 21" fill="none" xmlns="http://www.w3.org/2000/svg">
<path d="M10.028 1.68988C5.4825 1.68988 1.77979 5.22429 1.77979 9.56319C1.77979 13.9021 5.4825 17.4434 10.028 17.4434C11.9695 17.4434 13.7551 16.7939 15.1663 15.7155L18.602 18.9934C18.7754 19.152 19.007 19.2395 19.2472 19.2372C19.4873 19.2348 19.717 19.1428 19.8869 18.9808C20.0569 18.8188 20.1536 18.5998 20.1564 18.3705C20.1592 18.1413 20.0678 17.9201 19.9018 17.7544L16.4661 14.4749C17.5968 13.1257 18.278 11.4186 18.278 9.56319C18.278 5.22429 14.5735 1.68988 10.028 1.68988ZM10.028 3.43991C13.5827 3.43991 16.4429 6.17008 16.4429 9.56319C16.4429 12.9563 13.5827 15.6933 10.028 15.6933C6.47331 15.6933 3.61312 12.9563 3.61312 9.56319C3.61312 6.17008 6.47331 3.43991 10.028 3.43991Z" fill="currentColor"/>
</svg>
